<mxfile host="app.diagrams.net" modified="2024-02-14T12:03:11.809Z" agent="Mozilla/5.0 (Windows NT 10.0; Win64; x64) AppleWebKit/537.36 (KHTML, like Gecko) Chrome/121.0.0.0 Safari/537.36 Edg/121.0.0.0" version="23.1.2" etag="SAgoWKCHT--znfBd7bCs" type="github">
  <diagram name="第 1 页" id="TX8B6sgTyFg1PoYINWCZ">
    <mxGraphModel>
      <root>
        <mxCell id="0" />
        <mxCell id="1" parent="0" />
      </root>
    </mxGraphModel>
  </diagram>
</mxfile>
